<svg xmlns="http://www.w3.org/2000/svg" width="24" height="24" viewBox="0 0 24 24" fill="none" stroke="currentColor" stroke-width="2" stroke-linecap="round" stroke-linejoin="round"><circle cx="13.5" cy="6.5" r="0.5" fill="currentColor"/><circle cx="17.5" cy="10.5" r="0.5" fill="currentColor"/><circle cx="8.5" cy="7.5" r="0.5" fill="currentColor"/><circle cx="6.5" cy="12" r="0.5" fill="currentColor"/><path d="M12 2C6.5 2 2 6.5 2 12s4.5 10 10 10c.9 0 1.5-.7 1.5-1.5 0-.4-.1-.7-.4-1-.3-.3-.4-.7-.4-1 0-.8.7-1.5 1.5-1.5H16c3.3 0 6-2.7 6-6 0-5.5-4.5-10-10-10z"/></svg>
